# Blender v2.77 (sub 0) OBJ File: 'Level1.blend'
# www.blender.org
o Cube.008_Cube.002
v -61.200333 -3.000000 -30.710640
v -61.200333 7.000000 -30.710640
v -60.493225 -3.000000 -31.417747
v -60.493225 7.000000 -31.417747
v -39.987129 -3.000000 -9.497437
v -39.987129 7.000000 -9.497437
v -39.280022 -3.000000 -10.204544
v -39.280022 7.000000 -10.204544
vt 8.0000 -2.0000
vt -7.0000 3.0000
vt -7.0000 -2.0000
vt 8.0000 -2.0000
vt -7.0000 3.0000
vt -7.0000 -2.0000
vt 8.0000 -2.0000
vt -7.0000 3.0000
vt -7.0000 -2.0000
vt 8.0000 -2.0000
vt -7.0000 3.0000
vt -7.0000 -2.0000
vt 8.0000 -2.0000
vt -7.0000 -2.0000
vt -7.0000 3.0000
vt 8.0000 3.0000
vt 8.0000 3.0000
vt 8.0000 3.0000
vt 8.0000 3.0000
vt 8.0000 3.0000
vn -0.7071 0.0000 -0.7071
vn 0.7071 0.0000 -0.7071
vn 0.7071 0.0000 0.7071
vn -0.7071 0.0000 0.7071
vn 0.0000 -1.0000 0.0000
vn 0.0000 1.0000 -0.0000
s off
f 4/1/1 1/2/1 2/3/1
f 8/4/2 3/5/2 4/6/2
f 6/7/3 7/8/3 8/9/3
f 2/10/4 5/11/4 6/12/4
f 3/13/5 5/11/5 1/14/5
f 8/4/6 2/15/6 6/12/6
f 4/1/1 3/16/1 1/2/1
f 8/4/2 7/17/2 3/5/2
f 6/7/3 5/18/3 7/8/3
f 2/10/4 1/19/4 5/11/4
f 3/13/5 7/17/5 5/11/5
f 8/4/6 4/20/6 2/15/6
