# Blender v2.77 (sub 0) OBJ File: 'Level1.blend'
# www.blender.org
o Cylinder.008_Cylinder.010
v 0.000000 -1.750000 -94.500000
v 0.000000 -0.750000 -94.500000
v 1.853358 -1.750000 -94.317459
v 1.853358 -0.750000 -94.317459
v 3.635493 -1.750000 -93.776855
v 3.635493 -0.750000 -93.776855
v 5.277917 -1.750000 -92.898964
v 5.277917 -0.750000 -92.898964
v 6.717515 -1.750000 -91.717514
v 6.717515 -0.750000 -91.717514
v 7.898962 -1.750000 -90.277916
v 7.898962 -0.750000 -90.277916
v 8.776855 -1.750000 -88.635490
v 8.776855 -0.750000 -88.635490
v 9.317460 -1.750000 -86.853355
v 9.317460 -0.750000 -86.853355
v 9.500000 -1.750000 -85.000000
v 9.500000 -0.750000 -85.000000
v 9.317460 -1.750000 -83.146645
v 9.317460 -0.750000 -83.146645
v 8.776855 -1.750000 -81.364510
v 8.776855 -0.750000 -81.364510
v 7.898962 -1.750000 -79.722084
v 7.898962 -0.750000 -79.722084
v 6.717515 -1.750000 -78.282486
v 6.717515 -0.750000 -78.282486
v 5.277917 -1.750000 -77.101036
v 5.277917 -0.750000 -77.101036
v 3.635491 -1.750000 -76.223145
v 3.635491 -0.750000 -76.223145
v 1.853356 -1.750000 -75.682541
v 1.853356 -0.750000 -75.682541
v -0.000003 -1.750000 -75.500000
v -0.000003 -0.750000 -75.500000
v -1.853362 -1.750000 -75.682541
v -1.853362 -0.750000 -75.682541
v -3.635497 -1.750000 -76.223145
v -3.635497 -0.750000 -76.223145
v -5.277922 -1.750000 -77.101044
v -5.277922 -0.750000 -77.101044
v -6.717519 -1.750000 -78.282486
v -6.717519 -0.750000 -78.282486
v -7.898965 -1.750000 -79.722092
v -7.898965 -0.750000 -79.722092
v -8.776858 -1.750000 -81.364517
v -8.776858 -0.750000 -81.364517
v -9.317462 -1.750000 -83.146652
v -9.317462 -0.750000 -83.146652
v -9.500000 -1.750000 -85.000008
v -9.500000 -0.750000 -85.000008
v -9.317458 -1.750000 -86.853371
v -9.317458 -0.750000 -86.853371
v -8.776852 -1.750000 -88.635506
v -8.776852 -0.750000 -88.635506
v -7.898955 -1.750000 -90.277924
v -7.898955 -0.750000 -90.277924
v -6.717506 -1.750000 -91.717522
v -6.717506 -0.750000 -91.717522
v -5.277906 -1.750000 -92.898972
v -5.277906 -0.750000 -92.898972
v -3.635480 -1.750000 -93.776863
v -3.635480 -0.750000 -93.776863
v -1.853344 -1.750000 -94.317459
v -1.853344 -0.750000 -94.317459
vt 0.5000 0.9738
vt 0.5931 0.9649
vt 0.5000 0.9741
vt 0.5931 0.9646
vt 0.6827 0.9378
vt 0.6827 0.9374
vt 0.7652 0.8937
vt 0.7652 0.8933
vt 0.8375 0.8343
vt 0.8375 0.8340
vt 0.8969 0.7620
vt 0.8969 0.7616
vt 0.9410 0.6795
vt 0.9410 0.6791
vt 0.9682 0.5899
vt 0.9682 0.5896
vt 0.9773 0.4968
vt 0.9773 0.4964
vt 0.9682 0.4037
vt 0.9682 0.4033
vt 0.9410 0.3141
vt 0.9410 0.3138
vt 0.8969 0.2316
vt 0.8969 0.2312
vt 0.8375 0.1593
vt 0.8375 0.1589
vt 0.7652 0.0999
vt 0.7652 0.0996
vt 0.6827 0.0558
vt 0.6827 0.0554
vt 0.5931 0.0286
vt 0.5931 0.0283
vt 0.5000 0.0195
vt 0.5000 0.0191
vt 0.4069 0.0286
vt 0.4069 0.0283
vt 0.3173 0.0558
vt 0.3173 0.0554
vt 0.2348 0.0999
vt 0.2348 0.0996
vt 0.1625 0.1593
vt 0.1625 0.1589
vt 0.1031 0.2316
vt 0.1031 0.2312
vt 0.0590 0.3141
vt 0.0590 0.3138
vt 0.0318 0.4037
vt 0.0318 0.4033
vt 0.0227 0.4968
vt 0.0227 0.4964
vt 0.0318 0.5899
vt 0.0318 0.5896
vt 0.0590 0.6795
vt 0.0590 0.6791
vt 0.1031 0.7620
vt 0.1031 0.7616
vt 0.1625 0.8343
vt 0.1625 0.8340
vt 0.2348 0.8937
vt 0.2348 0.8933
vt 0.3173 0.9378
vt 0.3173 0.9374
vt 0.4069 0.9649
vt 0.4069 0.9646
vn 0.0980 0.0000 -0.9952
vn 0.2903 0.0000 -0.9569
vn 0.4714 0.0000 -0.8819
vn 0.6344 0.0000 -0.7730
vn 0.7730 0.0000 -0.6344
vn 0.8819 0.0000 -0.4714
vn 0.9569 0.0000 -0.2903
vn 0.9952 0.0000 -0.0980
vn 0.9952 0.0000 0.0980
vn 0.9569 0.0000 0.2903
vn 0.8819 0.0000 0.4714
vn 0.7730 0.0000 0.6344
vn 0.6344 0.0000 0.7730
vn 0.4714 0.0000 0.8819
vn 0.2903 0.0000 0.9569
vn 0.0980 0.0000 0.9952
vn -0.0980 0.0000 0.9952
vn -0.2903 0.0000 0.9569
vn -0.4714 0.0000 0.8819
vn -0.6344 0.0000 0.7730
vn -0.7730 0.0000 0.6344
vn -0.8819 0.0000 0.4714
vn -0.9569 0.0000 0.2903
vn -0.9952 0.0000 0.0980
vn -0.9952 0.0000 -0.0980
vn -0.9569 0.0000 -0.2903
vn -0.8819 0.0000 -0.4714
vn -0.7730 0.0000 -0.6344
vn -0.6344 0.0000 -0.7730
vn -0.4714 0.0000 -0.8819
vn 0.0000 1.0000 0.0000
vn -0.2903 0.0000 -0.9569
vn -0.0980 0.0000 -0.9952
vn 0.0000 -1.0000 0.0000
s off
f 2/1/1 3/2/1 1/3/1
f 4/4/2 5/5/2 3/2/2
f 6/6/3 7/7/3 5/5/3
f 8/8/4 9/9/4 7/7/4
f 10/10/5 11/11/5 9/9/5
f 12/12/6 13/13/6 11/11/6
f 14/14/7 15/15/7 13/13/7
f 16/16/8 17/17/8 15/15/8
f 18/18/9 19/19/9 17/17/9
f 20/20/10 21/21/10 19/19/10
f 22/22/11 23/23/11 21/21/11
f 24/24/12 25/25/12 23/23/12
f 26/26/13 27/27/13 25/25/13
f 28/28/14 29/29/14 27/27/14
f 30/30/15 31/31/15 29/29/15
f 32/32/16 33/33/16 31/31/16
f 34/34/17 35/35/17 33/33/17
f 36/36/18 37/37/18 35/35/18
f 38/38/19 39/39/19 37/37/19
f 40/40/20 41/41/20 39/39/20
f 42/42/21 43/43/21 41/41/21
f 44/44/22 45/45/22 43/43/22
f 46/46/23 47/47/23 45/45/23
f 48/48/24 49/49/24 47/47/24
f 50/50/25 51/51/25 49/49/25
f 52/52/26 53/53/26 51/51/26
f 54/54/27 55/55/27 53/53/27
f 56/56/28 57/57/28 55/55/28
f 58/58/29 59/59/29 57/57/29
f 60/60/30 61/61/30 59/59/30
f 30/30/31 22/22/31 40/40/31
f 62/62/32 63/63/32 61/61/32
f 64/64/33 1/3/33 63/63/33
f 45/45/34 47/47/34 63/63/34
f 2/1/1 4/4/1 3/2/1
f 4/4/2 6/6/2 5/5/2
f 6/6/3 8/8/3 7/7/3
f 8/8/4 10/10/4 9/9/4
f 10/10/5 12/12/5 11/11/5
f 12/12/6 14/14/6 13/13/6
f 14/14/7 16/16/7 15/15/7
f 16/16/8 18/18/8 17/17/8
f 18/18/9 20/20/9 19/19/9
f 20/20/10 22/22/10 21/21/10
f 22/22/11 24/24/11 23/23/11
f 24/24/12 26/26/12 25/25/12
f 26/26/13 28/28/13 27/27/13
f 28/28/14 30/30/14 29/29/14
f 30/30/15 32/32/15 31/31/15
f 32/32/16 34/34/16 33/33/16
f 34/34/17 36/36/17 35/35/17
f 36/36/18 38/38/18 37/37/18
f 38/38/19 40/40/19 39/39/19
f 40/40/20 42/42/20 41/41/20
f 42/42/21 44/44/21 43/43/21
f 44/44/22 46/46/22 45/45/22
f 46/46/23 48/48/23 47/47/23
f 48/48/24 50/50/24 49/49/24
f 50/50/25 52/52/25 51/51/25
f 52/52/26 54/54/26 53/53/26
f 54/54/27 56/56/27 55/55/27
f 56/56/28 58/58/28 57/57/28
f 58/58/29 60/60/29 59/59/29
f 60/60/30 62/62/30 61/61/30
f 6/6/31 4/4/31 64/64/31
f 2/1/31 64/64/31 4/4/31
f 62/62/31 60/60/31 58/58/31
f 58/58/31 56/56/31 64/64/31
f 54/54/31 52/52/31 56/56/31
f 50/50/31 48/48/31 46/46/31
f 46/46/31 44/44/31 64/64/31
f 42/42/31 40/40/31 44/44/31
f 38/38/31 36/36/31 40/40/31
f 34/34/31 32/32/31 36/36/31
f 30/30/31 28/28/31 26/26/31
f 26/26/31 24/24/31 30/30/31
f 22/22/31 20/20/31 14/14/31
f 18/18/31 16/16/31 20/20/31
f 14/14/31 12/12/31 10/10/31
f 10/10/31 8/8/31 6/6/31
f 6/6/31 64/64/31 10/10/31
f 62/62/31 58/58/31 64/64/31
f 52/52/31 50/50/31 56/56/31
f 44/44/31 40/40/31 64/64/31
f 36/36/31 32/32/31 40/40/31
f 30/30/31 24/24/31 22/22/31
f 20/20/31 16/16/31 14/14/31
f 14/14/31 10/10/31 64/64/31
f 64/64/31 56/56/31 46/46/31
f 50/50/31 46/46/31 56/56/31
f 32/32/31 30/30/31 40/40/31
f 22/22/31 14/14/31 40/40/31
f 64/64/31 40/40/31 14/14/31
f 62/62/32 64/64/32 63/63/32
f 64/64/33 2/1/33 1/3/33
f 63/63/34 1/3/34 3/2/34
f 3/2/34 5/5/34 9/9/34
f 7/7/34 9/9/34 5/5/34
f 11/11/34 13/13/34 63/63/34
f 15/15/34 17/17/34 19/19/34
f 19/19/34 21/21/34 15/15/34
f 23/23/34 25/25/34 31/31/34
f 27/27/34 29/29/34 25/25/34
f 31/31/34 33/33/34 35/35/34
f 35/35/34 37/37/34 39/39/34
f 39/39/34 41/41/34 43/43/34
f 43/43/34 45/45/34 63/63/34
f 47/47/34 49/49/34 55/55/34
f 51/51/34 53/53/34 55/55/34
f 55/55/34 57/57/34 63/63/34
f 59/59/34 61/61/34 63/63/34
f 63/63/34 3/2/34 9/9/34
f 9/9/34 11/11/34 63/63/34
f 15/15/34 21/21/34 13/13/34
f 25/25/34 29/29/34 31/31/34
f 31/31/34 35/35/34 39/39/34
f 39/39/34 63/63/34 31/31/34
f 49/49/34 51/51/34 55/55/34
f 57/57/34 59/59/34 63/63/34
f 63/63/34 13/13/34 21/21/34
f 21/21/34 23/23/34 31/31/34
f 39/39/34 43/43/34 63/63/34
f 47/47/34 55/55/34 63/63/34
f 63/63/34 21/21/34 31/31/34
